<svg xmlns="http://www.w3.org/2000/svg" xmlns:xlink="http://www.w3.org/1999/xlink" version="1.1" class="marks" width="640" height="420" viewBox="0 0 640 420"><rect width="640" height="420" fill="white"/><g fill="none" stroke-miterlimit="10" transform="translate(51,33)"><g class="mark-group role-frame root" role="graphics-object" aria-roledescription="group mark container"><g transform="translate(0,0)"><path class="background" aria-hidden="true" d="M0.5,0.5h500v350h-500Z" stroke="#ddd"/><g><g class="mark-group role-axis" aria-hidden="true"><g transform="translate(0.5,350.5)"><path class="background" aria-hidden="true" d="M0,0h0v0h0Z" pointer-events="none"/><g><g class="mark-rule role-axis-grid" pointer-events="none"><line transform="translate(500,-350)" x2="0" y2="350" stroke="#ddd" stroke-width="1" opacity="1"/><line transform="translate(450,-350)" x2="0" y2="350" stroke="#ddd" stroke-width="1" opacity="1"/><line transform="translate(400,-350)" x2="0" y2="350" stroke="#ddd" stroke-width="1" opacity="1"/><line transform="translate(350,-350)" x2="0" y2="350" stroke="#ddd" stroke-width="1" opacity="1"/><line transform="translate(300,-350)" x2="0" y2="350" stroke="#ddd" stroke-width="1" opacity="1"/><line transform="translate(250,-350)" x2="0" y2="350" stroke="#ddd" stroke-width="1" opacity="1"/><line transform="translate(200,-350)" x2="0" y2="350" stroke="#ddd" stroke-width="1" opacity="1"/><line transform="translate(150,-350)" x2="0" y2="350" stroke="#ddd" stroke-width="1" opacity="1"/><line transform="translate(100,-350)" x2="0" y2="350" stroke="#ddd" stroke-width="1" opacity="1"/><line transform="translate(50,-350)" x2="0" y2="350" stroke="#ddd" stroke-width="1" opacity="1"/><line transform="translate(0,-350)" x2="0" y2="350" stroke="#ddd" stroke-width="1" opacity="1"/></g></g><path class="foreground" aria-hidden="true" d="" pointer-events="none" display="none"/></g></g><g class="mark-group role-axis" aria-hidden="true"><g transform="translate(0.5,0.5)"><path class="background" aria-hidden="true" d="M0,0h0v0h0Z" pointer-events="none"/><g><g class="mark-rule role-axis-grid" pointer-events="none"><line transform="translate(500,350)" x2="-500" y2="0" stroke="#ddd" stroke-width="1" opacity="1"/><line transform="translate(500,300)" x2="-500" y2="0" stroke="#ddd" stroke-width="1" opacity="1"/><line transform="translate(500,250)" x2="-500" y2="0" stroke="#ddd" stroke-width="1" opacity="1"/><line transform="translate(500,200)" x2="-500" y2="0" stroke="#ddd" stroke-width="1" opacity="1"/><line transform="translate(500,150)" x2="-500" y2="0" stroke="#ddd" stroke-width="1" opacity="1"/><line transform="translate(500,100)" x2="-500" y2="0" stroke="#ddd" stroke-width="1" opacity="1"/><line transform="translate(500,50)" x2="-500" y2="0" stroke="#ddd" stroke-width="1" opacity="1"/><line transform="translate(500,0)" x2="-500" y2="0" stroke="#ddd" stroke-width="1" opacity="1"/></g></g><path class="foreground" aria-hidden="true" d="" pointer-events="none" display="none"/></g></g><g class="mark-group role-axis" role="graphics-symbol" aria-roledescription="axis" aria-label="X-axis titled 'AF Threshold' for a linear scale with values from 0.0 to 1.0"><g transform="translate(0.5,350.5)"><path class="background" aria-hidden="true" d="M0,0h0v0h0Z" pointer-events="none"/><g><g class="mark-rule role-axis-tick" pointer-events="none"><line transform="translate(500,0)" x2="0" y2="5" stroke="#888" stroke-width="1" opacity="1"/><line transform="translate(450,0)" x2="0" y2="5" stroke="#888" stroke-width="1" opacity="1"/><line transform="translate(400,0)" x2="0" y2="5" stroke="#888" stroke-width="1" opacity="1"/><line transform="translate(350,0)" x2="0" y2="5" stroke="#888" stroke-width="1" opacity="1"/><line transform="translate(300,0)" x2="0" y2="5" stroke="#888" stroke-width="1" opacity="1"/><line transform="translate(250,0)" x2="0" y2="5" stroke="#888" stroke-width="1" opacity="1"/><line transform="translate(200,0)" x2="0" y2="5" stroke="#888" stroke-width="1" opacity="1"/><line transform="translate(150,0)" x2="0" y2="5" stroke="#888" stroke-width="1" opacity="1"/><line transform="translate(100,0)" x2="0" y2="5" stroke="#888" stroke-width="1" opacity="1"/><line transform="translate(50,0)" x2="0" y2="5" stroke="#888" stroke-width="1" opacity="1"/><line transform="translate(0,0)" x2="0" y2="5" stroke="#888" stroke-width="1" opacity="1"/></g><g class="mark-text role-axis-label" pointer-events="none"><text text-anchor="end" transform="translate(500,15)" font-family="sans-serif" font-size="10px" fill="#000" opacity="1">0.0</text><text text-anchor="middle" transform="translate(450,15)" font-family="sans-serif" font-size="10px" fill="#000" opacity="1">0.1</text><text text-anchor="middle" transform="translate(400,15)" font-family="sans-serif" font-size="10px" fill="#000" opacity="1">0.2</text><text text-anchor="middle" transform="translate(350,15)" font-family="sans-serif" font-size="10px" fill="#000" opacity="1">0.3</text><text text-anchor="middle" transform="translate(300,15)" font-family="sans-serif" font-size="10px" fill="#000" opacity="1">0.4</text><text text-anchor="middle" transform="translate(250,15)" font-family="sans-serif" font-size="10px" fill="#000" opacity="1">0.5</text><text text-anchor="middle" transform="translate(200,15)" font-family="sans-serif" font-size="10px" fill="#000" opacity="1">0.6</text><text text-anchor="middle" transform="translate(150.00000000000003,15)" font-family="sans-serif" font-size="10px" fill="#000" opacity="1">0.7</text><text text-anchor="middle" transform="translate(99.99999999999997,15)" font-family="sans-serif" font-size="10px" fill="#000" opacity="1">0.8</text><text text-anchor="middle" transform="translate(49.999999999999986,15)" font-family="sans-serif" font-size="10px" fill="#000" opacity="1">0.9</text><text text-anchor="start" transform="translate(0,15)" font-family="sans-serif" font-size="10px" fill="#000" opacity="1">1.0</text></g><g class="mark-rule role-axis-domain" pointer-events="none"><line transform="translate(500,0)" x2="-500" y2="0" stroke="#888" stroke-width="1" opacity="1"/></g><g class="mark-text role-axis-title" pointer-events="none"><text text-anchor="middle" transform="translate(250,30)" font-family="sans-serif" font-size="11px" font-weight="bold" fill="#000" opacity="1">AF Threshold</text></g></g><path class="foreground" aria-hidden="true" d="" pointer-events="none" display="none"/></g></g><g class="mark-group role-axis" role="graphics-symbol" aria-roledescription="axis" aria-label="Y-axis titled 'MSI Score (%)' for a linear scale with values from 0.0 to 3.5"><g transform="translate(0.5,0.5)"><path class="background" aria-hidden="true" d="M0,0h0v0h0Z" pointer-events="none"/><g><g class="mark-rule role-axis-tick" pointer-events="none"><line transform="translate(0,350)" x2="-5" y2="0" stroke="#888" stroke-width="1" opacity="1"/><line transform="translate(0,300)" x2="-5" y2="0" stroke="#888" stroke-width="1" opacity="1"/><line transform="translate(0,250)" x2="-5" y2="0" stroke="#888" stroke-width="1" opacity="1"/><line transform="translate(0,200)" x2="-5" y2="0" stroke="#888" stroke-width="1" opacity="1"/><line transform="translate(0,150)" x2="-5" y2="0" stroke="#888" stroke-width="1" opacity="1"/><line transform="translate(0,100)" x2="-5" y2="0" stroke="#888" stroke-width="1" opacity="1"/><line transform="translate(0,50)" x2="-5" y2="0" stroke="#888" stroke-width="1" opacity="1"/><line transform="translate(0,0)" x2="-5" y2="0" stroke="#888" stroke-width="1" opacity="1"/></g><g class="mark-text role-axis-label" pointer-events="none"><text text-anchor="end" transform="translate(-7,353)" font-family="sans-serif" font-size="10px" fill="#000" opacity="1">0.0</text><text text-anchor="end" transform="translate(-7,303)" font-family="sans-serif" font-size="10px" fill="#000" opacity="1">0.5</text><text text-anchor="end" transform="translate(-7,253)" font-family="sans-serif" font-size="10px" fill="#000" opacity="1">1.0</text><text text-anchor="end" transform="translate(-7,203)" font-family="sans-serif" font-size="10px" fill="#000" opacity="1">1.5</text><text text-anchor="end" transform="translate(-7,153)" font-family="sans-serif" font-size="10px" fill="#000" opacity="1">2.0</text><text text-anchor="end" transform="translate(-7,103)" font-family="sans-serif" font-size="10px" fill="#000" opacity="1">2.5</text><text text-anchor="end" transform="translate(-7,53.000000000000014)" font-family="sans-serif" font-size="10px" fill="#000" opacity="1">3.0</text><text text-anchor="end" transform="translate(-7,3)" font-family="sans-serif" font-size="10px" fill="#000" opacity="1">3.5</text></g><g class="mark-rule role-axis-domain" pointer-events="none"><line transform="translate(0,350)" x2="0" y2="-350" stroke="#888" stroke-width="1" opacity="1"/></g><g class="mark-text role-axis-title" pointer-events="none"><text text-anchor="middle" transform="translate(-35,175) rotate(-90) translate(0,-2)" font-family="sans-serif" font-size="11px" font-weight="bold" fill="#000" opacity="1">MSI Score (%)</text></g></g><path class="foreground" aria-hidden="true" d="" pointer-events="none" display="none"/></g></g><g class="mark-group role-scope layer_0_pathgroup" role="graphics-object" aria-roledescription="group mark container"><g transform="translate(0,0)"><path class="background" aria-hidden="true" d="M0,0h500v350h-500Z"/><g><g class="mark-area role-mark layer_0_marks" role="graphics-object" aria-roledescription="area mark container"><path aria-label="AF Threshold: 1; MSI Score (%): 0.66674966316; upper_bound: 0.672074870938; sample: sample" role="graphics-symbol" aria-roledescription="area mark" d="M0,283.325L100,277.697L200,271.029L300,236.002L400,235.454L500,204.572L500,202.182L400,233.764L300,234.318L200,270.296L100,276.989L0,282.793Z" fill="#1f77b4" opacity="0.2"/></g></g><path class="foreground" aria-hidden="true" d="" display="none"/></g></g><g class="mark-group role-scope layer_1_layer_0_pathgroup" role="graphics-object" aria-roledescription="group mark container"><g transform="translate(0,0)"><path class="background" aria-hidden="true" d="M0,0h500v350h-500Z"/><g><g class="mark-line role-mark layer_1_layer_0_marks" role="graphics-object" aria-roledescription="line mark container"><path aria-label="af_threshold: 1; msi_score: 0.669412267049; sample: sample; Sample: sample; AF Threshold: 1.0; MSI Score (%): 0.67; Lower Bound: 0.67; Upper Bound: 0.67" role="graphics-symbol" aria-roledescription="line mark" d="M0,283.059L100,277.343L200,270.662L300,235.16L400,234.609L500,203.377" stroke="#1f77b4" stroke-width="2"/></g></g><path class="foreground" aria-hidden="true" d="" display="none"/></g></g><g class="mark-symbol role-mark layer_1_layer_1_marks" role="graphics-object" aria-roledescription="symbol mark container"><path aria-label="af_threshold: 0; msi_score: 1.46623324748; sample: sample; Sample: sample; AF Threshold: 0.0; MSI Score (%): 1.47; Lower Bound: 1.45; Upper Bound: 1.48" role="graphics-symbol" aria-roledescription="point" transform="translate(500,203.37667525240698)" d="M2.739,0A2.739,2.739,0,1,1,-2.739,0A2.739,2.739,0,1,1,2.739,0" fill="#1f77b4" stroke-width="2" opacity="1"/><path aria-label="af_threshold: 0.2; msi_score: 1.15390972576; sample: sample; Sample: sample; AF Threshold: 0.2; MSI Score (%): 1.15; Lower Bound: 1.15; Upper Bound: 1.16" role="graphics-symbol" aria-roledescription="point" transform="translate(400,234.6090274238647)" d="M2.739,0A2.739,2.739,0,1,1,-2.739,0A2.739,2.739,0,1,1,2.739,0" fill="#1f77b4" stroke-width="2" opacity="1"/><path aria-label="af_threshold: 0.4; msi_score: 1.14840015978; sample: sample; Sample: sample; AF Threshold: 0.4; MSI Score (%): 1.15; Lower Bound: 1.14; Upper Bound: 1.16" role="graphics-symbol" aria-roledescription="point" transform="translate(300,235.15998402225867)" d="M2.739,0A2.739,2.739,0,1,1,-2.739,0A2.739,2.739,0,1,1,2.739,0" fill="#1f77b4" stroke-width="2" opacity="1"/><path aria-label="af_threshold: 0.6; msi_score: 0.793377501687; sample: sample; Sample: sample; AF Threshold: 0.6; MSI Score (%): 0.79; Lower Bound: 0.79; Upper Bound: 0.80" role="graphics-symbol" aria-roledescription="point" transform="translate(200,270.66224983126955)" d="M2.739,0A2.739,2.739,0,1,1,-2.739,0A2.739,2.739,0,1,1,2.739,0" fill="#1f77b4" stroke-width="2" opacity="1"/><path aria-label="af_threshold: 0.8; msi_score: 0.726574014132; sample: sample; Sample: sample; AF Threshold: 0.8; MSI Score (%): 0.73; Lower Bound: 0.72; Upper Bound: 0.73" role="graphics-symbol" aria-roledescription="point" transform="translate(99.99999999999997,277.3425985867963)" d="M2.739,0A2.739,2.739,0,1,1,-2.739,0A2.739,2.739,0,1,1,2.739,0" fill="#1f77b4" stroke-width="2" opacity="1"/><path aria-label="af_threshold: 1; msi_score: 0.669412267049; sample: sample; Sample: sample; AF Threshold: 1.0; MSI Score (%): 0.67; Lower Bound: 0.67; Upper Bound: 0.67" role="graphics-symbol" aria-roledescription="point" transform="translate(0,283.0587732951337)" d="M2.739,0A2.739,2.739,0,1,1,-2.739,0A2.739,2.739,0,1,1,2.739,0" fill="#1f77b4" stroke-width="2" opacity="1"/></g><g class="mark-rule role-mark layer_2_marks" role="graphics-symbol" aria-roledescription="rule mark container"><line transform="translate(500,0)" x2="-500" y2="0" stroke="#d62728" stroke-width="2" stroke-dasharray="5,5"/><line transform="translate(500,0)" x2="-500" y2="0" stroke="#d62728" stroke-width="2" stroke-dasharray="5,5"/><line transform="translate(500,0)" x2="-500" y2="0" stroke="#d62728" stroke-width="2" stroke-dasharray="5,5"/><line transform="translate(500,0)" x2="-500" y2="0" stroke="#d62728" stroke-width="2" stroke-dasharray="5,5"/><line transform="translate(500,0)" x2="-500" y2="0" stroke="#d62728" stroke-width="2" stroke-dasharray="5,5"/><line transform="translate(500,0)" x2="-500" y2="0" stroke="#d62728" stroke-width="2" stroke-dasharray="5,5"/></g><g class="mark-text role-mark layer_3_marks" role="graphics-object" aria-roledescription="text mark container"><text text-anchor="end" transform="translate(245,-2)" font-family="sans-serif" font-size="11px" fill="#d62728">MSI Threshold</text><text text-anchor="end" transform="translate(245,-2)" font-family="sans-serif" font-size="11px" fill="#d62728">MSI Threshold</text><text text-anchor="end" transform="translate(245,-2)" font-family="sans-serif" font-size="11px" fill="#d62728">MSI Threshold</text><text text-anchor="end" transform="translate(245,-2)" font-family="sans-serif" font-size="11px" fill="#d62728">MSI Threshold</text><text text-anchor="end" transform="translate(245,-2)" font-family="sans-serif" font-size="11px" fill="#d62728">MSI Threshold</text><text text-anchor="end" transform="translate(245,-2)" font-family="sans-serif" font-size="11px" fill="#d62728">MSI Threshold</text></g><g class="mark-group role-legend" role="graphics-symbol" aria-roledescription="legend" aria-label="Symbol legend titled 'Sample' for fill color and stroke color with 1 value: sample"><g transform="translate(520,0)"><path class="background" aria-hidden="true" d="M0,0h64v29h-64Z" pointer-events="none"/><g><g class="mark-group role-legend-entry"><g transform="translate(0,16)"><path class="background" aria-hidden="true" d="M0,0h0v0h0Z" pointer-events="none"/><g><g class="mark-group role-scope" role="graphics-object" aria-roledescription="group mark container"><g transform="translate(0,0)"><path class="background" aria-hidden="true" d="M0,0h64v12.5h-64Z" pointer-events="none" opacity="1"/><g><g class="mark-symbol role-legend-symbol" pointer-events="none"><path transform="translate(6,6)" d="M5,0A5,5,0,1,1,-5,0A5,5,0,1,1,5,0" fill="#1f77b4" stroke="#1f77b4" stroke-width="1.5" opacity="0.2"/></g><g class="mark-text role-legend-label" pointer-events="none"><text text-anchor="start" transform="translate(16,9)" font-family="sans-serif" font-size="10px" fill="#000" opacity="1">sample</text></g></g><path class="foreground" aria-hidden="true" d="" pointer-events="none" display="none"/></g></g></g><path class="foreground" aria-hidden="true" d="" pointer-events="none" display="none"/></g></g><g class="mark-text role-legend-title" pointer-events="none"><text text-anchor="start" transform="translate(0,9)" font-family="sans-serif" font-size="11px" font-weight="bold" fill="#000" opacity="1">Sample</text></g></g><path class="foreground" aria-hidden="true" d="" pointer-events="none" display="none"/></g></g><g class="mark-group role-title"><g transform="translate(250,-28)"><path class="background" aria-hidden="true" d="M0,0h0v0h0Z" pointer-events="none"/><g><g class="mark-text role-title-text" role="graphics-symbol" aria-roledescription="title" aria-label="Title text 'MSI Evolution Across AF Thresholds'" pointer-events="none"><text text-anchor="middle" transform="translate(0,10)" font-family="sans-serif" font-size="13px" font-weight="bold" fill="#000" opacity="1">MSI Evolution Across AF Thresholds</text></g></g><path class="foreground" aria-hidden="true" d="" pointer-events="none" display="none"/></g></g></g><path class="foreground" aria-hidden="true" d="" display="none"/></g></g></g></svg>