<?xml version="1.0" encoding="UTF-8" standalone="no"?>
<!-- Created with Inkscape (http://www.inkscape.org/) -->

<svg
   xmlns:dc="http://purl.org/dc/elements/1.1/"
   xmlns:cc="http://creativecommons.org/ns#"
   xmlns:rdf="http://www.w3.org/1999/02/22-rdf-syntax-ns#"
   xmlns:svg="http://www.w3.org/2000/svg"
   xmlns="http://www.w3.org/2000/svg"
   xmlns:sodipodi="http://sodipodi.sourceforge.net/DTD/sodipodi-0.dtd"
   xmlns:inkscape="http://www.inkscape.org/namespaces/inkscape"
   width="130.02922mm"
   height="111.71268mm"
   viewBox="0 0 130.02922 111.71269"
   version="1.1"
   id="svg8"
   inkscape:version="0.92.3 (2405546, 2018-03-11)"
   sodipodi:docname="logo.svg">
  <defs
     id="defs2" />
  <sodipodi:namedview
     id="base"
     pagecolor="#ffffff"
     bordercolor="#666666"
     borderopacity="1.0"
     inkscape:pageopacity="0.0"
     inkscape:pageshadow="2"
     inkscape:zoom="1.4"
     inkscape:cx="412.13945"
     inkscape:cy="201.3621"
     inkscape:document-units="mm"
     inkscape:current-layer="layer1"
     showgrid="false"
     inkscape:window-width="1853"
     inkscape:window-height="1016"
     inkscape:window-x="67"
     inkscape:window-y="27"
     inkscape:window-maximized="1"
     fit-margin-top="0"
     fit-margin-left="0"
     fit-margin-right="0"
     fit-margin-bottom="0" />
  <metadata
     id="metadata5">
    <rdf:RDF>
      <cc:Work
         rdf:about="">
        <dc:format>image/svg+xml</dc:format>
        <dc:type
           rdf:resource="http://purl.org/dc/dcmitype/StillImage" />
        <dc:title></dc:title>
      </cc:Work>
    </rdf:RDF>
  </metadata>
  <g
     inkscape:label="Layer 1"
     inkscape:groupmode="layer"
     id="layer1"
     transform="translate(-9.0308993,-64.656392)">
    <path
       style="fill:#000000;stroke-width:0.26458335"
       d="M 31.870667,176.18936 C 28.34666,166.4252 18.747166,160.24282 15.646852,150.17898 13.173802,141.62426 9.226671,133.2127 9.0715572,124.19593 8.5299648,117.12274 13.659777,110.09414 9.0324903,103.85843 9.237419,95.407664 19.845231,95.981632 20.644152,88.072762 c 5.145813,-5.438328 8.882816,-12.06873 12.315364,-18.38495 4.299089,-7.753545 13.662843,-5.585583 18.695644,0.03457 3.69309,1.191001 0.870946,4.080149 3.979753,7.029745 1.963287,6.050125 -0.988071,1.981454 -2.093061,-0.03266 -1.677601,4.225738 -0.849428,5.056317 2.296623,4.859939 -7.854969,-1.595193 2.248284,7.028197 -4.468879,8.124777 2.993679,6.641947 -5.396002,2.887857 -3.347428,8.771045 -1.287544,2.857482 -4.150677,2.138792 -2.204598,6.600642 -0.221584,1.22838 -5.492614,6.94088 -1.877843,6.43171 1.292054,-4.97688 3.76711,-6.12659 6.185609,-8.93853 2.199656,-4.072912 6.189214,2.18494 5.905092,-4.7724 2.347981,-1.359483 4.852549,1.000529 4.445758,-4.236292 2.271294,-1.207713 2.701343,-2.196065 5.027449,-3.387059 2.497613,1.016961 2.448312,-6.077158 6.349634,-1.346916 4.007904,12.165537 -5.087069,21.483427 -10.128532,36.252737 -7.77565,3.33389 -5.253795,18.30728 -2.283281,18.26918 -3.683889,-0.98162 5.338842,7.88273 2.658499,7.04429 0.836837,3.80306 6.356476,9.4757 7.041333,12.0928 -5.701263,-3.42142 -8.318184,-10.25451 -11.186441,-16.00188 -3.748963,-8.09106 2.108384,7.6437 -1.838835,0.59465 -1.927153,-3.89887 -4.440759,-9.70634 -2.036319,-14.40586 0.124358,5.16046 2.014375,-10.81536 7.115877,-8.65151 2.422831,-10.08515 5.698996,-14.89492 9.049193,-23.00042 0.972085,-3.032837 4.203375,-12.366228 -1.368047,-5.93558 -4.323923,3.84334 -9.238958,7.43032 -13.514938,11.64084 -4.076569,4.5846 -9.927479,7.78182 -13.190929,12.51226 -2.570936,-0.25598 -5.327765,5.01581 -5.382051,-0.95714 -0.485831,-6.48903 3.996433,-12.29198 4.740573,-18.702304 3.57423,-6.019069 3.694446,-13.936472 5.441799,-20.799155 3.052097,-3.366345 -1.322136,-8.427355 -1.042946,-8.725362 7.254099,-1.759881 -12.13628,-9.206954 -9.10669,0.173024 -0.854126,5.425367 -8.221167,4.133392 -9.223443,10.37019 -3.639969,5.167397 -10.065122,10.494427 -8.465257,17.284288 -0.486306,2.147199 -1.852216,-3.016412 -4.240858,0.358491 -4.437073,1.496355 -1.629721,4.260248 -0.647209,5.687278 1.546845,1.24853 -3.676177,-0.0823 -3.654112,-1.63386 -0.889792,3.52655 3.252411,8.78733 3.648894,5.58385 1.583473,2.19635 -0.02861,12.54851 -0.853532,10.68214 0.357304,-3.59292 0.736832,-10.82058 -1.387151,-3.33005 0.400725,4.06129 -0.07788,9.9599 -0.867252,11.75379 -0.608128,2.99531 6.970087,13.61823 1.585184,7.64682 1.179748,9.01285 6.505311,16.97916 12.13576,23.84412 -4.866196,-1.5751 3.087664,7.50655 4.832368,10.51057 2.07201,3.07497 5.146954,6.34044 2.246251,5.55124 0.12145,0.36869 0.911431,2.44885 -0.06051,1.65354 z m -8.965314,-15.09682 c -1.575094,-3.38339 -0.475008,1.03912 0,0 z M 10.915261,123.42152 c -0.453638,-0.45489 0.228426,1.47916 0,0 z m 36.552795,-14.93827 c 4.35297,-2.37256 -0.988934,-2.00949 0,0 z m -3.277249,-3.46681 c -0.423913,-4.62336 -1.430793,5.24381 0,0 z m 7.024963,0.73963 c 6.043585,-4.54499 -1.960117,-4.68545 0,0 z m 6.618634,-6.478739 c 1.085102,-2.03278 -2.103376,1.428169 0,0 z m -11.31117,0.223139 c 0.107641,-2.669976 -1.68816,1.09313 0,0 z m -0.153808,-1.743533 c -0.453631,-0.454901 0.228427,1.479165 0,0 z m -28.563903,-1.53789 c -0.857843,-1.697285 -0.961922,1.720254 0,0 z M 62.836074,94.89613 c -0.09681,-4.310763 -2.767056,2.640307 0,0 z M 50.050302,92.33119 c 0.447805,-4.925778 -4.524984,3.496092 0.07345,1.724962 L 50.0503,92.331187 Z m 15.849843,0.18369 c -0.105516,-2.707103 -2.549938,1.857364 0,0 z m 4.039026,-2.4091 c -0.696118,-4.138431 -2.454327,1.738724 0,0 z M 51.900316,88.54613 c 0.739627,-2.478195 -0.681504,-5.415146 -1.464508,-0.490472 -2.007781,2.291592 1.165983,0.22947 1.464508,0.490472 z M 51.470347,75.564136 c -0.284797,-4.904254 -0.920606,3.755461 0,0 z m 1.06834,-1.943097 c -0.04271,-3.473697 -6.904091,-6.849034 -1.924352,-2.377018 -0.116052,-0.505972 1.798002,4.738991 1.924356,2.377015 z M 34.225038,72.701847 c 3.748333,-3.085295 -0.35052,-5.053515 0.195961,-0.833257 -1.504941,-0.30771 -4.158047,2.049117 -0.195961,0.833257 z m 15.319388,-0.08033 c -0.45363,-0.454901 0.228427,1.479165 0,0 z M 18.486658,107.6933 c -8.8964818,-10.330086 13.337424,-10.330633 3.445143,-0.52197 -1.016696,0.595 -2.295173,0.90454 -3.445143,0.52197 z m 2.763301,-1.49417 c 5.857974,-5.29616 -4.529522,-8.278797 -3.447051,-1.47467 0.653756,1.16056 2.110649,2.30952 3.447051,1.47467 z m -1.731272,-1.83092 c -1.006808,-5.704777 4.060697,-0.28992 0,0 z"
       id="path21"
       inkscape:connector-curvature="0"
       sodipodi:nodetypes="cccccccccccccccccccccccccccccccccccccccccccccccccccccccccccccccccccccccccccccccccccccccccccccccccccc" />
    <path
       style="fill:none;stroke:#1de9b6;stroke-width:1.26499999;stroke-linecap:butt;stroke-linejoin:round;stroke-miterlimit:4;stroke-dasharray:none;stroke-opacity:1"
       d="M 51.470345,75.564134 37.937516,118.70872 70.468336,91.164112"
       id="path29"
       inkscape:connector-curvature="0"
       sodipodi:nodetypes="ccc" />
    <text
       xml:space="preserve"
       style="font-style:normal;font-weight:normal;font-size:10.58333302px;line-height:1.25;font-family:sans-serif;letter-spacing:0px;word-spacing:0px;fill:#1de9b6;fill-opacity:1;stroke:none;stroke-width:0.26458332"
       x="69.661011"
       y="116.81874"
       id="text4541"><tspan
         sodipodi:role="line"
         id="tspan4539"
         x="69.661011"
         y="116.81874"
         style="font-style:normal;font-variant:normal;font-weight:normal;font-stretch:normal;font-size:14.11111069px;font-family:'DejaVu Sans';-inkscape-font-specification:'DejaVu Sans';letter-spacing:2.57439613px;fill:#1de9b6;fill-opacity:1;stroke-width:0.26458332">AR</tspan><tspan
         sodipodi:role="line"
         x="69.661011"
         y="134.45763"
         style="font-style:normal;font-variant:normal;font-weight:normal;font-stretch:normal;font-size:14.11111069px;font-family:'DejaVu Sans';-inkscape-font-specification:'DejaVu Sans';letter-spacing:2.57439613px;fill:#1de9b6;fill-opacity:1;stroke-width:0.26458332"
         id="tspan4570">LOCI</tspan><tspan
         sodipodi:role="line"
         x="69.661011"
         y="152.09651"
         style="font-style:normal;font-variant:normal;font-weight:normal;font-stretch:normal;font-size:14.11111069px;font-family:'DejaVu Sans';-inkscape-font-specification:'DejaVu Sans';letter-spacing:2.57439613px;fill:#1de9b6;fill-opacity:1;stroke-width:0.26458332"
         id="tspan4572">RAPTOR</tspan></text>
    <flowRoot
       xml:space="preserve"
       id="flowRoot4543"
       style="font-style:normal;font-weight:normal;font-size:40px;line-height:1.25;font-family:sans-serif;letter-spacing:0px;word-spacing:0px;fill:#000000;fill-opacity:1;stroke:none"
       transform="scale(0.26458333)"><flowRegion
         id="flowRegion4545"><rect
           id="rect4547"
           width="15"
           height="749.28571"
           x="-76.428574"
           y="-532.48035" /></flowRegion><flowPara
         id="flowPara4549"></flowPara></flowRoot>  </g>
</svg>
