<svg class="marks" width="252" height="242" viewBox="0 0 252 242" version="1.1" xmlns="http://www.w3.org/2000/svg" xmlns:xlink="http://www.w3.org/1999/xlink"><g transform="translate(45,5)"><g class="mark-group role-frame root"><g transform="translate(0,0)"><path class="background" d="M0.5,0.5h200v200h-200Z" style="fill: none; stroke: #ddd;"></path><g><g class="mark-group role-axis"><g transform="translate(0.5,200.5)"><path class="background" d="M0,0h0v0h0Z" style="pointer-events: none; fill: none;"></path><g><g class="mark-rule role-axis-grid" style="pointer-events: none;"><line transform="translate(0,-200)" x2="0" y2="200" style="fill: none; stroke: #ddd; stroke-width: 1; opacity: 1;"></line><line transform="translate(40,-200)" x2="0" y2="200" style="fill: none; stroke: #ddd; stroke-width: 1; opacity: 1;"></line><line transform="translate(80,-200)" x2="0" y2="200" style="fill: none; stroke: #ddd; stroke-width: 1; opacity: 1;"></line><line transform="translate(120,-200)" x2="0" y2="200" style="fill: none; stroke: #ddd; stroke-width: 1; opacity: 1;"></line><line transform="translate(160,-200)" x2="0" y2="200" style="fill: none; stroke: #ddd; stroke-width: 1; opacity: 1;"></line><line transform="translate(200,-200)" x2="0" y2="200" style="fill: none; stroke: #ddd; stroke-width: 1; opacity: 1;"></line></g></g></g></g><g class="mark-group role-axis"><g transform="translate(0.5,0.5)"><path class="background" d="M0,0h0v0h0Z" style="pointer-events: none; fill: none;"></path><g><g class="mark-rule role-axis-grid" style="pointer-events: none;"><line transform="translate(0,200)" x2="200" y2="0" style="fill: none; stroke: #ddd; stroke-width: 1; opacity: 1;"></line><line transform="translate(0,164)" x2="200" y2="0" style="fill: none; stroke: #ddd; stroke-width: 1; opacity: 1;"></line><line transform="translate(0,127)" x2="200" y2="0" style="fill: none; stroke: #ddd; stroke-width: 1; opacity: 1;"></line><line transform="translate(0,91)" x2="200" y2="0" style="fill: none; stroke: #ddd; stroke-width: 1; opacity: 1;"></line><line transform="translate(0,55)" x2="200" y2="0" style="fill: none; stroke: #ddd; stroke-width: 1; opacity: 1;"></line><line transform="translate(0,18)" x2="200" y2="0" style="fill: none; stroke: #ddd; stroke-width: 1; opacity: 1;"></line></g></g></g></g><g class="mark-line role-mark marks"><path d="M0,15.013898701135332L1.9999999552965164,74.16450201373704L2.033899910748005,74.2595057724859L2.0408200100064278,74.26322033913384L2.0833399146795273,74.26509621893977L2.173919975757599,74.26578429250277L2.222220040857792,74.26958829207517L2.267719991505146,74.26958829207517L2.500000037252903,74.30820376940301L2.5316400453448296,74.3124072701167L2.5640999898314476,74.31436679101051L2.597399987280369,74.31436679996601L2.6315800845623016,74.3164535154231L2.640780061483383,74.3332549819756L2.666660025715828,74.37609329383615L2.800000086426735,74.39539755998135L2.853799983859062,74.39940180593561L2.857140079140663,74.40219557403421L3.0302999541163445,74.40219557413393L3.3333398401737213,74.40316023816919L3.448279947042465,74.4147469854006L3.5714201629161835,74.42426390367703L3.703700006008148,74.43083896083516L3.7361200898885727,74.43125189102898L3.999999910593033,74.43484198808991L4.0725599974393845,74.552362819312L4.0816400200128555,74.55596556441262L4.15537990629673,74.55596556441262L4.166660085320473,74.56052775944566L4.255320131778717,74.56795062858315L4.347819834947586,74.56795062858315L4.444440081715584,74.56795063186073L4.500000178813934,74.5679629028736L4.539779946208,74.6123894759648L4.545459896326065,74.62045803050495L4.651160165667534,74.64381752232467L4.761900007724762,74.65038587533171L4.865159839391708,74.65078236281393L4.87804003059864,74.657596525293L5.000000074505806,74.65759652529316L5.020080134272575,74.66934294428353L5.0450399518013,74.67770517766157L5.113200098276138,74.6860316198525L5.128199979662895,74.69550350186074L5.23901991546154,74.71001442823977L5.263160169124603,74.7621930646987L5.341780185699463,74.76414912836908L5.446720123291016,74.78452086856457L5.555560067296028,74.80865832022671L5.68000003695488,74.83499436106456L5.684220045804977,74.89214958207096L5.714280158281326,74.9415019609708L5.88236004114151,74.95000339203082L5.92861995100975,75.01356965776569L5.975599959492683,75.02376313855443L5.999999865889549,75.08105408723421L6.020060181617737,75.6650118170165L6.060599908232689,75.71168210650202L6.1224400997161865,75.77962415582358L6.25,75.86623348851431L6.382980197668076,75.93928775080387L6.4125798642635345,75.93938216484837L6.413800269365311,75.99773686372582L6.451620161533356,76.05653595887689L6.491219997406006,76.12310524185901L6.5431199967861176,76.18151018352026L6.5476201474666595,76.20799666643636L6.568840146064758,76.25451537868473L6.632660329341888,76.27791670955293L6.639999896287918,76.31667084592686L6.666660308837891,76.43371405884005L6.753239780664444,76.56528728488765L6.7746601998806,76.6023433316057L6.818179786205292,76.65416245448651L6.890060007572174,76.6542242490878L6.89655989408493,76.69027070104313L6.938780099153519,76.76156512155197L6.972979754209518,76.76990106262697L6.9958798587322235,76.86793190885595L7.044780254364014,76.89982266454163L7.134760171175003,76.94599884805832L7.136359810829163,77.0000898838244L7.142859697341919,77.05923929468648L7.154639810323715,77.15719509168719L7.275400310754776,77.21194432415098L7.317080348730087,77.23423750772109L7.345680147409439,77.2349120219477L7.388140261173248,77.26336968433681L7.396440207958221,77.27772603510911L7.407400012016296,77.31775331004984L7.495059818029404,77.53572429650895L7.500000298023224,77.59510408218442L7.509259879589081,77.59514400971732L7.519540190696716,77.61064308981418L7.536940276622772,77.64806596253466L7.541479915380478,77.68947933444356L7.692299783229828,77.72989777641818L7.710839807987213,77.80007382185627L7.724999636411667,77.85823000926308L7.840000092983246,77.91125682385494L7.864479720592499,77.94984240384252L7.908420264720917,77.96441094246553L7.967600226402283,78.00307128777146L7.999999821186066,78.06219446613201L8.007819950580597,78.68510517406997L8.037979900836945,78.70170468993425L8.108100295066833,78.75561137604006L8.1632599234581,78.75561137604006L8.222220093011856,78.76664085328544L8.235300332307816,79.06212897785285L8.250360190868378,79.12066499674468L8.333340287208557,79.13542866202441L8.361580222845078,79.23524548738395L8.373379707336426,79.64930109277128L8.472339808940887,79.70811508327161L8.57141986489296,79.74596464574313L8.593759685754776,79.7641959543417L8.680140227079391,79.82303273621612L8.695659786462784,80.00101305475718L8.769520372152328,80.08988270910113L8.77550020813942,80.14847704030095L8.823519945144653,80.20775415201437L8.832419663667679,80.22272869285199L8.884680271148682,80.50658743539982L8.888880163431168,80.5230108936424L8.916659653186798,80.53929504010048L8.928579837083817,80.5984423222773L8.965519815683365,80.6272043203738L9.026540070772171,80.63466385360019L9.05798003077507,80.69339225686616L9.072019904851913,80.69880241180671L9.082119911909103,80.75806832628196L9.090899676084518,80.82750910530045L9.190680086612701,81.29707695762609L9.302320331335068,81.35632542070739L9.350640326738358,81.35632542072098L9.370619803667068,81.41565498753829L9.404580295085907,81.4746936512784L9.465020149946213,81.53120474986378L9.49999988079071,81.70909593041402L9.504140168428421,81.85176218532703L9.507539868354797,81.87957319671399L9.523800015449524,81.88813828740251L9.643600136041641,81.93523925823317L9.677419811487198,82.0535884637992L9.695299714803696,82.05423342559995L9.7222201526165,82.08678723381698L9.729719907045364,82.14609144682743L9.739360213279724,82.20516989554041L9.743580222129822,82.24236428442883L9.749999642372131,82.33470483871388L9.756100177764893,82.61630582106835L9.763319790363312,82.63618732163312L9.777779877185822,82.695557017336L9.863939881324768,82.72390276986337L9.917359799146652,82.79585589385118L9.95476022362709,82.80171768592585L9.972299635410309,82.92047790628254L10.000000149011612,82.96425877833435L10.042279958724976,89.14630623975228L10.104519873857498,89.15525757633893L10.107020288705826,89.18570918257997L10.114940255880356,89.24352015073636L10.16950011253357,89.28837396230224L10.202659666538239,89.4071097773931L10.203620046377182,89.45399691560985L10.204079747200012,89.51184280046438L10.239999741315842,89.61625577086758L10.24181991815567,89.73486692411798L10.249300301074982,89.82368108946568L10.249999910593033,90.03528282977835L10.256420075893402,90.21289142812456L10.330580174922943,94.94930768047307L10.344819724559784,94.95547210714084L10.389620065689087,95.05736762457664L10.395479947328568,95.14149224005544L10.416659712791443,95.20055539518657L10.452959686517715,95.24982106679107L10.459180176258087,95.30891409133606L10.461919754743576,95.36828109494921L10.4762002825737,95.4277395721903L10.493820160627365,95.4629731996388L10.51281988620758,95.5079753877053L10.526320338249207,95.6850539927788L10.638300329446793,101.52794256706682L10.659679770469666,101.53177265776094L10.666660219430923,101.59076013474898L10.667259991168976,101.68123090960653L10.677079856395721,101.73975234887999L10.714279860258102,101.79876389718365L10.76923981308937,101.93830029257529L10.793659836053848,101.98256078536207L10.802459716796875,102.02810229057138L10.80332025885582,102.1331674137435L10.804600268602371,102.36577542245756L10.810820013284683,102.6364509486145L10.836759954690933,107.57917938397247L10.869559645652771,107.63855763744712L10.88436022400856,107.63856252949896L10.909099876880646,107.64797137677856L10.969380289316177,107.70738418948122L11.01028025150299,107.73266675535996L11.025640368461609,107.79129544691327L11.080340296030045,107.83884838424784L11.111120134592056,107.89794293013412L11.131200194358826,113.57556217883828L11.137259751558304,113.62333183898502L11.153119802474976,113.68142076292871L11.168839782476425,113.91641145801012L11.18163987994194,113.97348850013867L11.224479973316193,114.03301552164284L11.242599785327911,114.24047157951844L11.255419999361038,114.25444888790499L11.32076010107994,114.260979977712L11.359120160341263,114.49802105771306L11.363639682531357,114.54201961074627L11.400959640741348,114.5903857158715L11.418680101633072,114.70907775870145L11.419759690761566,115.12102687358498L11.428579688072205,115.18024775487449L11.47959977388382,120.20047311678289L11.532679945230484,120.24170112307007L11.538460105657578,120.29998638824917L11.62789985537529,120.56749007221181L11.63434013724327,120.56749007597998L11.640220135450363,120.61624683886173L11.664299666881561,120.68742853535629L11.673559993505478,120.74646531161753L11.680000275373459,120.92057397241142L11.746039986610413,120.97993372505039L11.764699965715408,121.15760560602547L11.904759705066681,124.82136926325197L11.919999867677689,124.83682604115765L11.94503977894783,124.95545990215139L11.948060244321823,125.0147910920667L11.999999731779099,125.03876685559636L12.030760198831558,125.4406310867257L12.109380215406418,125.49938509964902L12.110719829797745,125.81468992905523L12.12121993303299,125.98989391209001L12.13018000125885,129.03302548511743L12.163259834051132,129.16700875106642L12.195120006799698,129.28569630540431L12.244900315999985,129.35342111454912L12.368019670248032,129.35354409789227L12.44444027543068,129.4093354842004L12.456739693880081,129.4473880147309L12.477719783782959,129.5066274170855L12.5,129.7434702421753L12.543560564517975,133.4800837653571L12.554119527339935,133.639581862718L12.599200010299683,133.64728405348026L12.60329931974411,133.70689706924338L12.615379691123962,133.76584731615483L12.765960395336151,133.79368214365365L12.77191936969757,133.8527512303454L12.802760303020477,133.91243842244563L12.847219407558441,133.93753965247868L12.8494992852211,134.00897867087482L12.880000472068787,134.0514517649477L12.890620529651642,134.11074205418805L12.90321946144104,134.16997579767474L12.9230797290802,137.6489753340095L12.999999523162842,137.82638433068325L13.017760217189789,138.05970902707963L13.04347962141037,138.08869404007655L13.111120462417603,138.13057857265704L13.138000667095184,138.35975708581825L13.148780167102814,138.536616882688L13.19074034690857,138.5830434580343L13.194440305233002,138.60889215742054L13.293659687042236,138.63772782499848L13.306459784507751,138.6957470587895L13.333339989185333,138.8140639452854L13.449279963970184,142.40723416816195L13.513520359992981,142.42598013005997L13.533060252666473,142.42598013005997L13.541659712791443,142.59354142430902L13.563220202922821,142.74013159164082L13.580240309238434,142.79665268781116L13.588659465312958,142.85548513182033L13.60543966293335,142.91515710555748L13.636359572410583,142.95051380256376L13.655759394168854,142.99632447746882L13.672119379043579,143.00950595808044L13.705100119113922,143.0690175114916L13.768120110034943,143.1091996502044L13.775500655174255,143.12977059441278L13.793100416660309,143.2379239273743L13.846160471439362,145.8931329633154L13.850420713424683,145.9524099624055L13.888880610466003,146.12956006336879L13.914099335670471,146.12956015014197L13.953480124473572,146.18913683948062L13.95999938249588,146.18913683948062L14.000000059604645,146.24880455743528L14.112900197505951,146.29835390740433L14.127419888973236,146.32680564153094L14.130440354347229,146.3860794530262L14.137940108776093,146.55497056980644L14.224760234355927,146.59829527227652L14.285719394683838,146.65760695680098L14.462800323963165,149.6703266150711L14.506180584430695,149.71383982537418L14.550259709358215,149.83244259475723L14.589379727840424,149.94342702401636L14.634139835834503,150.12038628254754L14.682920277118683,150.17907109447947L14.705879986286163,150.22947208144492L14.800000190734863,150.22953272493828L14.814819395542145,150.2811370024259L14.876039326190948,153.31088377943385L14.878900349140167,153.35765156747271L14.95458036661148,153.41613751099305L15.000000596046448,153.47573102294282L15.088759362697601,153.49842674306802L15.128199756145477,153.55526661389194L15.238100290298462,153.61374028811977L15.289260447025299,153.7321294226895L15.384620428085327,153.77009541922206L15.425540506839752,156.62832786279827L15.57094007730484,156.68761225771934L15.584419667720795,156.74583724944267L15.625,156.81551875214234L15.646259486675262,156.85892384137367L15.692299604415894,156.9166190941341L15.78948050737381,156.92852112548343L15.844160318374634,156.92852112554405L15.873019397258759,156.98725624241843L15.909099578857422,157.0458519157797L15.999999642372131,157.05117885241674L16.01731926202774,159.92961800149826L16.129040718078613,159.9538291986573L16.21621996164322,159.9538291986573L16.25708043575287,160.01313802854293L16.279080510139465,160.05916377025517L16.319440305233,160.0594039835541L16.406260430812836,160.16901809590217L16.450220346450806,160.22635864358057L16.466020047664642,160.2653572246908L16.666659712791443,160.3250015034122L16.796879470348358,162.9648320323546L16.88311994075775,163.02416546101185L17.021280527114868,163.06254990085847L17.02897995710373,163.06255010367772L17.030300199985504,163.11371809425955L17.07317978143692,163.17334273445283L17.14286059141159,163.17334273445283L17.391300201416016,163.23290647644174L17.499999701976776,165.6497958402391L17.5464004278183,165.64984644343537L17.64705926179886,165.7094774639748L17.695480585098267,165.72130163299383L17.768600583076477,165.75369515385225L17.777779698371887,165.8082242499647L17.85714030265808,165.86775668341923L18.000000715255737,165.86775668341923L18.18182021379471,165.8680287028999L18.359379470348358,167.34472881994085L18.36733967065811,167.40371888042188L18.42105984687805,167.40371888591739L18.604660034179688,167.40372211679477L18.614719808101654,167.4990928211192L18.702860176563263,167.5544643528059L18.75,167.60191879204228L19.0476194024086,167.7402272193626L19.212959706783295,169.43633676443122L19.444440305233,169.48439495913516L20.000000298023224,169.48439495913516L20.51279991865158,171.6633421693708L20.689600706100464,171.71183568028692L20.833399891853333,171.71183568028692L21.05260044336319,171.74298622025702L21.138200163841248,173.47445166107786L21.212199330329895,173.49106669787557L21.428599953651428,173.491156365919L21.50000035762787,173.55083481286124L21.621599793434143,173.5951623676781L21.73919975757599,173.65205287627208L21.81819975376129,173.6522440590294L21.95120006799698,173.7068109528943L21.99999988079071,173.7068109528943L22.22220003604889,173.706811267494L22.44900017976761,175.56067439534345L22.499999403953552,175.5606777423338L22.580599784851074,175.60869345153202L22.727200388908386,175.61524218877113L22.857199609279633,175.6152584470312L22.916600108146667,175.6152584470312L22.950799763202667,175.6152584470312L23.077000677585602,175.6315388081177L23.33340048789978,175.78403152087745L23.529399931430817,175.82988696834775L23.684200644493103,177.5901054964563L23.80959987640381,177.59024725545854L23.999999463558197,177.64814889381825L24.3244007229805,177.648148893839L24.38019961118698,177.648148893839L24.444399774074554,177.7026182240767L25,177.76106405139458L25.459998846054077,178.8540498236484L25.806400179862976,178.8735789649053L25.999999046325684,178.8735789771475L26.087000966072083,178.8735819024112L26.315799355506897,178.93279754629683L26.66659951210022,178.93279754669658L26.923000812530518,180.12004235655058L27.17519998550415,180.1200425374737L27.272799611091614,180.17968515235594L27.4509996175766,180.23820168061226L27.500000596046448,180.2622349977491L27.586200833320618,180.32021978046325L27.77779996395111,180.32021978047305L28.00000011920929,180.3202421729361L28.125,180.3202456196517L28.333398699760437,180.372036305427L28.51240038871765,180.43075056946648L28.571400046348572,180.47398507722644L28.94740104675293,181.92008556064206L28.99399995803833,181.97901429492143L29.032200574874878,182.03843604981344L29.166600108146667,182.044454553366L29.41179871559143,182.044454553366L29.629600048065186,182.044454967691L29.729801416397095,182.08904765090395L30.000001192092896,182.08904765090395L30.303001403808594,182.08909965638512L30.500000715255737,182.08909965638512L30.76919913291931,182.14819528763297L31.034401059150696,182.53203566524945L31.25,182.53208050202934L31.48140013217926,182.53208050202934L31.578999757766724,182.59109227044084L31.70740008354187,182.59109227044084L31.818199157714844,182.59109227044084L31.999999284744263,182.59109227044084L32.81260132789612,182.5910923233851L33.33339989185333,182.62701272164537L34.00000035762787,183.17101899434508L34.210601449012756,183.21407413196664L34.375,183.21407413196664L34.48280096054077,183.21407413196664L34.693801403045654,183.21407413196664L34.78260040283203,183.2434933172432L34.99999940395355,183.27903481193445L35.08419990539551,183.27903481193445L35.13520061969757,183.32581078979382L35.294198989868164,183.32581078979382L35.41660010814667,183.38467049398986L35.48380136489868,183.38467049398986L35.53079962730408,183.38467049398994L35.55560111999512,183.44437939622262L35.714200139045715,183.44437939622262L35.897400975227356,183.44437939622262L36.000001430511475,183.44437939622262L36.11119985580444,183.4990760928032L36.170199513435364,183.52893129908273L36.33340001106262,183.52893129908273L36.363598704338074,183.588644543562L36.66659891605377,184.21016562035888L36.734598875045776,184.21016562035888L36.84220016002655,184.26642605615382L36.95659935474396,184.26642605615382L37.03700006008148,184.26642605615382L37.5,184.26642605615382L37.83780038356781,184.26642609699073L37.93100118637085,184.26642609699073L37.97920048236847,184.26642609699073L37.99999952316284,184.3261332187431L38.095200061798096,184.3261332187431L38.23519945144653,184.3261332187431L38.29779922962189,184.3261332187431L38.46159875392914,184.3261332187431L38.636401295661926,184.41601620199182L38.709598779678345,184.41601620199182L38.775599002838135,184.41602443665442L38.83880078792572,184.41602443665442L38.88880014419556,184.4757300873715L38.91119956970215,184.4757300873715L39.02440071105957,184.5348133450575L39.130398631095886,184.5348133450575L39.285799860954285,184.5348133450575L39.39400017261505,184.5348133450575L39.46540057659149,184.57866074178582L39.53480124473572,184.63837308585946L39.58339989185333,184.63837308585946L40.00000059604645,184.63837308585946L40.21739959716797,185.31760842782484L40.476199984550476,185.37631338264117L40.54059982299805,185.37631338264117L40.74079990386963,185.38187128273387L40.816399455070496,185.38187128273387L40.90900123119354,185.43970883199376L41.1763995885849,185.43970883199376L41.25739932060242,185.43970883199376L41.30440056324005,185.49941913538328L41.379401087760925,185.49941913538328L41.463398933410645,185.51955800690888L41.578999161720276,185.51955800690888L41.66660010814667,185.57837828083782L41.999998688697815,185.57837828083782L42.10520088672638,185.6165308457238L42.222198843955994,185.61653084572382L42.30760037899017,185.61653084572382L42.55320131778717,185.61653084572382L42.857199907302856,185.61653084572382L43.181800842285156,185.6908296011223L43.2125985622406,185.6908296011223L43.333399295806885,185.75053403191325L43.38839948177338,185.75053403191325L43.47819983959198,185.7780339685498L43.608999252319336,185.7780339685498L43.75,185.83774186561857L43.90240013599396,185.83774186561857L43.99999976158142,185.83774186561857L44.11759972572327,186.32975862595148L44.185999035835266,186.32975862595148L44.44440007209778,186.34525726276283L44.6153998374939,186.3992910037945L44.62220072746277,186.45898988616986L44.680801033973694,186.51870167892645L44.72920000553131,186.51870167892645L44.73679959774017,186.57841032717226L44.79399919509888,186.57841032717226L44.827601313591,186.63811304610576L44.999998807907104,186.63811304610576L45.16119956970215,186.74258075868795L45.35079896450043,186.74258075868795L45.45460045337677,186.80228812670245L45.652198791503906,186.8022881267049L45.71419954299927,186.8022881267049L45.76919972896576,186.8022881267049L45.83339989185333,186.86200253125764L45.94599902629852,186.89014769346662L46.00000083446503,186.89014769346662L46.15379869937897,186.89014769346662L46.34140133857727,186.94786575274534L46.42859995365143,186.99117936669208L46.48280143737793,186.99117936669208L46.66660130023956,187.0508699591028L46.808600425720215,187.050869962214L46.875,187.050869962214L46.93880081176758,187.050869962214L47.05879986286163,187.050869962214L47.22220003604889,187.050869962214L47.28359878063202,187.050869962214L47.31700122356415,187.11057306169306L47.368401288986206,187.1702608391259L47.49999940395355,187.1702608391259L47.61900007724762,187.1702608391259L47.727200388908386,187.1702608391259L47.826001048088074,187.1702608391259L47.91660010814667,187.1702608391259L47.999998927116394,187.1702608391259L48.148199915885925,187.24624144924297L48.208001255989075,187.24624144924297L48.27579855918884,187.30584333446922L48.38699996471405,187.30584333446922L48.48479926586151,187.30584333446922L48.571398854255676,187.30584333446922L48.64859879016876,187.30584333446922L48.71799945831299,187.30584333446922L48.780399560928345,187.30584333446922L48.83719980716705,187.30584333446922L48.88879954814911,187.30584333446922L48.93620014190674,187.30584333446922L48.97960126399994,187.30584333446922L50,187.30584333446922L50.27580261230469,188.21654801479022L50.2813994884491,188.27623318814506L51.01860165596008,188.33592048063923L51.0204017162323,188.39558337475017L51.06379985809326,188.39558337475017L51.11119747161865,188.395583377394L51.16279721260071,188.395583377394L51.18719935417175,188.395583377394L51.19659900665283,188.45526726714476L51.219600439071655,188.51493251993725L51.28200054168701,188.51493251993725L51.2969970703125,188.51493251993725L51.351398229599,188.57461362800598L51.428598165512085,188.57461362800598L51.50499939918518,188.63422223588253L51.51519775390625,188.6938857854703L51.61299705505371,188.753550298559L51.71459913253784,188.7535504647469L51.72420144081116,188.81320654044677L51.74819827079773,188.81320654044677L51.78239941596985,188.8728672335035L51.81660056114197,188.93255012555747L51.851797103881836,188.99221411915374L51.86079740524292,188.99221411915374L51.99999809265137,189.05187780989877L52.08340287208557,189.05187780989877L52.174001932144165,189.05187780989877L52.27280259132385,189.05187780989877L52.37119793891907,189.05187780989877L52.376800775527954,189.11155554324233L52.38100290298462,189.1711857696078L52.49999761581421,189.1711857696078L52.631598711013794,189.1711857696078L52.651602029800415,189.17128675491426L52.77780294418335,189.23094712063192L52.94119715690613,189.23094712063192L53.03040146827698,189.23094712063192L53.06119918823242,189.28687805746122L53.125,189.28687805746122L53.191399574279785,189.28687805746122L53.333401679992676,189.28687805746122L53.461599349975586,189.34652443106432L53.4883975982666,189.40618394860084L53.57139706611633,189.40618394860084L53.65859866142273,189.40618394860084L53.8349986076355,189.46581826130566L53.846198320388794,189.5254607969779L53.97440195083618,189.5254607969779L54.00000214576721,189.58512305324737L54.05399799346924,189.58512305324737L54.16659712791443,189.58512305324737L54.28580045700073,189.58512305324737L54.339599609375,189.58512305324737L54.347801208496094,189.64476428936482L54.35299873352051,189.64476428936482L54.54540252685547,189.70443572160136L54.76199984550476,189.7136162256915L54.83880043029785,189.7136162256915L55.000001192092896,189.7136162256915L55.10200262069702,190.27028948748662L55.172401666641235,190.27028948748662L55.26319742202759,190.27028948748662L55.542802810668945,190.27028948748662L55.55559992790222,190.32994455346477L55.76919913291931,190.32994455346483L55.813997983932495,190.38959291147012L55.88240027427673,190.38959291147012L55.94199895858765,190.38959291147012L56.00000023841858,190.44926046279093L56.09760284423828,190.44926046279093L56.25,190.44926046279093L56.27279877662659,190.44926046279093L56.34480118751526,190.50890079070237L56.41019940376282,190.56854539760536L56.52179718017578,190.56854539760536L56.59700036048889,190.56854539760536L56.666600704193115,190.6282056053857L56.756800413131714,190.6282056053857L56.818199157714844,190.6282056053857L57.142800092697144,190.6282056053857L57.19220042228699,190.68808898833205L57.33339786529541,190.74774257855887L57.44680166244507,190.8073962147179L57.499998807907104,190.8073962147179L57.57579803466797,190.8073962147179L57.62619972229004,190.8073962147179L57.692402601242065,190.86704784871787L57.76119828224182,190.86704784871787L57.77779817581177,190.9266976223639L57.89480209350586,190.9266976223639L57.978397607803345,190.9266976223639L57.999998331069946,190.98635024088716L58.064597845077515,191.0106005977082L58.13959836959839,191.0106005977082L58.22780132293701,191.0106005977082L58.252400159835815,191.07022698741565L58.33340287208557,191.1298599912004L58.407002687454224,191.1298599912004L58.536601066589355,191.18949619415557L58.62060189247131,191.18949619415557L58.69560241699219,191.18949619415557L58.82359743118286,191.18949619415557L58.9743971824646,191.30805092335626L58.99999737739563,191.30805092335626L59.091001749038696,191.3677009300133L59.183597564697266,191.36770093001337L59.25920009613037,191.36770093001337L59.34060215950012,191.36770093001337L59.375,191.4273439930411L59.45940017700195,191.4273439930411L59.523797035217285,191.4273439930411L59.57440137863159,191.4273439930411L59.6858024597168,191.4273439930411L59.86400246620178,191.48699081737598L59.903401136398315,191.54663007464745L60.00000238418579,191.60628089587487L60.41659712791443,191.99328375047722L60.43959856033325,191.99328375047722L60.46519875526428,192.05293565269065L60.52640080451965,192.05293565269065L60.60600280761719,192.05293565269065L60.71419715881348,192.05293565269065L60.75940132141113,192.11257885592144L60.81879734992981,192.17220669982802L60.869598388671875,192.2318551796728L60.97559928894043,192.23185517967443L61.11119985580444,192.29148713649323L61.15700006484985,192.29148713649323L61.194002628326416,192.35113121493356L61.224400997161865,192.41077302171377L61.290401220321655,192.41077302171377L61.36360168457031,192.4704171666882L61.53839826583862,192.4704171666882L61.60200238227844,192.5511465486425L61.691200733184814,192.61079881719212L61.702197790145874,192.67043714910633L61.76480054855347,192.73006726537076L61.904799938201904,192.73006726537076L62.00000047683716,192.7897198782056L62.06899881362915,192.8493771245051L62.16220259666443,192.8493771245051L62.22220063209534,192.8493771245051L62.26080060005188,192.8493771245051L62.5,192.9090240943025L62.79060244560242,192.95656466881636L62.800002098083496,192.95656466881636L62.85719871520996,193.01621423968783L62.96300292015076,193.01621423968783L63.043397665023804,193.01621423968783L63.09540271759033,193.01621423968783L63.15780282020569,193.07587153867203L63.265401124954224,193.07587153867203L63.33339810371399,193.07587153867203L63.33940029144287,193.07587153867203L63.414597511291504,193.1355141152448L63.52599859237671,193.1355141152448L63.56859803199768,193.1951644357105L63.63639831542969,193.3144834957175L63.8297975063324,193.3144834957175L63.88880014419556,193.3144834957175L63.999998569488525,193.3144834957175L64.10260200500488,193.3730292383621L64.28580284118652,193.3730292383621L64.44439888000488,193.3730292383639L64.50799703598022,193.3730292383639L64.51619863510132,193.49233049748767L64.58340287208557,193.49233049748767L64.64840173721313,193.49233049748767L64.70580101013184,193.5519659770832L64.86480236053467,193.5519659770832L64.96919989585876,193.5519659770832L64.99999761581421,193.6005998034772L65.11620283126831,193.6005998034772L65.21739959716797,193.6005998034772L65.30619859695435,193.6005998034772L65.3846025466919,193.6005998034772L65.39480090141296,193.6005998034772L65.4744029045105,193.66024345794523L65.50059914588928,193.71990351486156L65.51719903945923,193.77957458215042L65.625,193.77957458215042L65.71419835090637,193.77957458215042L65.78940153121948,193.77957458215042L65.85360169410706,193.77957458215042L65.9089982509613,193.77957458215042L65.95739722251892,193.77957458215042L66.00000262260437,193.77957458215042L66.04660153388977,193.77957458215042L66.06820225715637,193.83924225283982L66.07400178909302,193.8989116179871L66.08459949493408,193.9585818389762L66.47719740867615,194.01822048379879L66.66659712791443,194.07789186750477L66.8421983718872,194.4555058686877L66.86139702796936,194.5149957906865L67.18440055847168,194.57465614259235L67.34700202941895,194.6343383621109L67.37620234489441,194.6343383621109L67.39140152931213,194.69402026095185L67.44179725646973,194.69402026095185L67.5000011920929,194.69402026095185L67.56759881973267,194.69402026095185L67.58720278739929,194.69402026095185L67.64699816703796,194.75367710034737L67.74200201034546,194.75367710034737L67.85719990730286,194.75367710034737L68.00000071525574,194.75367710034737L68.08519959449768,194.79131598704691L68.18180084228516,194.79131598704691L68.29259991645813,194.79131598704691L68.4000015258789,194.79131598704691L68.42100024223328,194.8510073649776L68.57140064239502,194.8510073649776L68.69840025901794,194.8510073649776L68.75,194.91069629156283L68.81319880485535,194.91069629156283L68.88880133628845,194.9703751032281L68.89479756355286,194.9703751032281L68.96560192108154,195.03005476057155L69.04760003089905,195.03005476057155L69.21740174293518,195.03005476057155L69.22079920768738,195.08973421625478L69.23080086708069,195.14939893699668L69.38779950141907,195.14939893699668L69.44440007209778,195.14939893699668L69.56520080566406,195.14939893699668L69.6969985961914,195.14939893699668L69.73680257797241,195.14939893699668L69.76739764213562,195.20906048763422L69.9999988079071,195.20906048763422L70.16839981079102,195.20906048841243L70.2127993106842,195.26874860615132L70.2701985836029,195.26874860615132L70.37039995193481,195.26874860615132L70.45459747314453,195.26874860615132L70.58820128440857,195.26874860615132L70.69519758224487,195.26874860615132L70.71980237960815,195.32844137638676L70.73180079460144,195.38812659847284L70.76380252838135,195.38812659847284L70.7938015460968,195.44779111255718L70.83340287208557,195.50747031667365L70.96779942512512,195.50747031667365L71.05259895324707,195.50747031667365L71.09379768371582,195.50747031667365L71.11120223999023,195.56706137020345L71.2906002998352,195.56706137020345L71.42860293388367,195.62675556495154L71.66380286216736,195.62675556612814L71.73920273780823,195.68644546591713L71.79480195045471,195.68644546591713L71.84579968452454,195.68644546591713L71.875,195.74611539699805L71.94600105285645,195.74611539699805L71.95320129394531,195.8058029608641L71.95879817008972,195.86549427893794L72.00000286102295,195.92519251221216L72.09299802780151,195.92519251221216L72.22219705581665,195.92519251221216L72.26439714431763,195.92519251221216L72.34039902687073,195.98473549113749L72.41380214691162,195.98473549113749L72.50000238418579,195.98473549113749L72.72719740867615,195.98473549113749L72.91659712791443,195.98473549113749L72.97300100326538,195.98473549113749L73.07699918746948,195.98473549113749L73.17079901695251,195.98473549113749L73.33340048789978,195.98473549113749L73.46940040588379,195.98473549113749L73.5293984413147,195.98473549113749L73.5319972038269,195.98473549113749L73.68419766426086,196.0444106156652L73.80959987640381,196.0444106156652L73.91300201416016,196.0444106156652L74.00000095367432,196.0444106156652L74.07400012016296,196.19789086353174L74.19360280036926,196.19789086353174L74.28579926490784,196.19789086353174L74.3589997291565,196.19789086353174L74.41859841346741,196.19789086353174L74.46799874305725,196.19789086353174L74.62679743766785,196.19789086353174L74.70579743385315,196.25759640888938L74.78259801864624,196.3173013135964L75,196.34712663123054L75.51019787788391,196.34983488574994L75.52639842033386,196.34983488574994L75.55559873580933,196.40953053112457L75.60979723930359,196.40953053112457L75.67560076713562,196.40953053112457L75.75759887695312,196.40953053112457L75.8620023727417,196.40953053112457L75.99999904632568,196.40953053112457L76.08699798583984,196.40953053112457L76.19040012359619,196.40953053112457L76.23440027236938,196.40953053112457L76.31580233573914,196.46923630448094L76.4706015586853,196.46923630448094L76.59580111503601,196.46923630448094L76.66659951210022,196.46923630448094L76.7441987991333,196.46923630448094L76.92300081253052,196.46923630448094L77.08340287208557,196.46923630448094L77.14279890060425,196.46923630448094L77.27280259132385,196.46923630448094L77.41940021514893,196.46923630448094L77.45180130004883,196.46923630448094L77.49999761581421,196.52893945963737L77.55100131034851,196.57961171640144L77.77780294418335,196.57961171640144L77.99999713897705,196.5796117795794L78.04880142211914,196.60185530677077L78.125,196.60185530677077L78.26079726219177,196.60185530677077L78.37839722633362,196.60185530677077L78.57139706611633,196.60185530677077L78.6296010017395,196.60185530677077L78.72340083122253,196.66155980540853L78.72719764709473,196.66155980540853L78.78779768943787,196.7212642667296L78.92619967460632,196.7212642667296L78.94740104675293,196.78095870251138L79.0697991847992,196.78095870251138L79.16659712791443,196.78095870251138L79.31039929389954,196.78095870251138L79.41179871559143,196.78095870251138L79.4871985912323,196.78095870251138L79.54540252685547,196.78095870251138L79.59179878234863,196.78095870251138L80.0000011920929,196.78095870251138L80.21420240402222,196.81879463854884L80.43479919433594,196.878500085L80.48779964447021,196.878500085L80.55559992790222,196.878500085L80.64519762992859,196.878500085L80.6846022605896,196.878500085L80.76919913291931,196.93820505499588L80.85100054740906,196.93820505499588L80.95239996910095,196.93820505499588L81.08100295066833,196.93820505499588L81.25,196.93820505499588L81.39539957046509,196.93820505501074L81.48139715194702,196.93820505501074L81.57899975776672,196.93820505501074L81.63260221481323,196.93820505501074L81.81819915771484,196.93820505501074L81.99999928474426,196.93820505501074L82.05119967460632,196.93820505501074L82.14280009269714,196.93820505501074L82.22219944000244,196.93820505501074L82.35300183296204,196.93820505501074L82.4999988079071,196.93820505501074L82.60859847068787,196.93820505501074L82.75859951972961,196.93820505501074L82.85719752311707,196.93820505501074L82.92679786682129,196.93820505501074L82.97880291938782,196.93820505501074L83.33340287208557,196.93820505501074L83.72099995613098,197.42140881435955L83.78379940986633,197.42140881435955L83.87100100517273,197.42140881435955L83.99999737739563,197.42140881435955L84.0910017490387,197.42140881435955L84.21059846878052,197.42140881435955L84.375,197.42140881435955L84.44439768791199,197.42140881435955L84.6153974533081,197.42140881435955L84.71140265464783,197.42140881435955L84.84839797019958,197.4811257647033L85.00000238418579,197.4811257647033L85.10640263557434,197.4811257647033L85.18519997596741,197.4811257647033L85.29419898986816,197.4811257647033L85.36580204963684,197.4811257647033L85.41659712791443,197.4811257647033L85.71419715881348,197.4811257647033L86.00000143051147,197.48112577611946L86.11119985580444,197.48112577611946L86.20679974555969,197.54084136374195L86.36360168457031,197.54084136374195L86.48639917373657,197.54084136374195L86.66660189628601,197.54084136374195L86.84219717979431,197.54084136374195L86.9566023349762,197.54084136374195L87.09679841995239,197.54084136374195L87.5,197.54084136374195L87.75519728660583,197.5413627965977L87.80480027198792,197.5413627965977L87.87879943847656,197.5413627965977L87.99999952316284,197.5413627965977L88.0952000617981,197.5413627965977L88.23519945144653,197.5413627965977L88.46160173416138,197.5413627965977L88.57139945030212,197.5413627965977L88.63639831542969,197.5413627965977L88.88880014419556,197.5413627965977L89.13040161132812,197.54136279659778L89.18920159339905,197.54136279659778L89.28580284118652,197.54136279659778L89.36179876327515,197.54136279659778L89.58340287208557,197.54136279659778L89.655202627182,197.54136279659778L89.74360227584839,197.54136279659778L89.79600071907043,197.54136279659778L89.83479738235474,197.58413669303482L89.99999761581421,197.64385429975985L90.47620296478271,197.64385429975985L90.6063973903656,197.64385429975985L90.625,197.7035998687802L90.69759845733643,197.7035998687802L90.9089982509613,197.7035998687802L91.11120104789734,197.7035998687802L91.30439758300781,197.7035998687802L91.42860174179077,197.7035998687802L91.48939847946167,197.7035998687802L91.66659712791443,197.7035998687802L91.83679819107056,197.7035998687802L91.89180135726929,197.7035998687802L92.00000166893005,197.7035998687802L92.10519790649414,197.7035998687802L92.17759966850281,197.7035998687802L92.30759739875793,197.76335925856543L92.59260296821594,197.76335925856543L92.6829993724823,197.76335925856543L92.85719990730286,197.76335925856543L93.02319884300232,197.76335925856543L93.10340285301208,197.76335925856543L93.18180084228516,197.76335925856543L93.33339929580688,197.76335925856543L93.5483992099762,197.76335925856543L93.6169981956482,197.76335925856543L93.75,197.76335925856543L93.87760162353516,197.76335925856543L93.93939971923828,197.76335925856543L93.99999976158142,197.82188955197256L94.11759972572327,197.82188955197256L94.28579807281494,197.82188955197256L94.44440007209778,197.82188955197256L94.59459781646729,197.82188955197256L94.73680257797241,197.82188955197256L94.8718011379242,197.82188955197697L94.9999988079071,197.82188955197697L95.12199759483337,197.86293019015565L95.23800015449524,197.86293019015565L95.34879922866821,197.86293019015565L95.45459747314453,197.86293019015565L95.55559754371643,197.86293019015565L95.6521987915039,197.86293019015565L95.83340287208557,197.86293019015565L95.99999785423279,197.86293019015565L96.1538016796112,197.87951308578621L96.16000056266785,197.87951308578621L96.29619717597961,197.9392321689049L96.42860293388367,197.9392321689049L96.55179977416992,197.9392321689049L96.66659832000732,197.9392321689049L96.77420258522034,197.9392321689049L96.875,197.9392321689049L97.05880284309387,197.9392321689049L97.14279770851135,197.9392321689049L97.22219705581665,197.9392321689049L97.29719758033752,197.9392321689049L97.3684012889862,197.9392321689049L97.43580222129822,197.9392321689049L97.50000238418579,197.9392321689049L97.56100177764893,197.9392321689049L97.61899709701538,197.9392321689049L97.82599806785583,197.9392321689049L97.87240028381348,197.9392321689049L97.91659712791443,197.9392321689049L97.95920252799988,197.9392321689049L98.00000190734863,197.9392321689049L100,197.9392321689049L101.99999809265137,198.4210695602865L102.0408034324646,198.4210695602865L102.0833969116211,198.4210695602865L102.12759971618652,198.4210695602865L102.22220420837402,198.4210695602865L102.27279663085938,198.4210695602865L102.32559442520142,198.4210695602865L102.43899822235107,198.4210695602865L102.49999761581421,198.4210695602865L102.56420373916626,198.4210695602865L102.63160467147827,198.4210695602865L102.77780294418335,198.4210695602865L102.85719633102417,198.4210695602865L102.9412031173706,198.4210695602865L103.0303955078125,198.4210695602865L103.125,198.4210695602865L103.22580337524414,198.4210695602865L103.33340167999268,198.4210695602865L103.44820022583008,198.4210695602865L103.57140302658081,198.4210695602865L103.70379686355591,198.4210695602865L103.84620428085327,198.4210695602865L103.99999618530273,198.4210695602865L104.1666030883789,198.4210695602865L104.25540208816528,198.4210695602865L104.3478012084961,198.4210695602865L104.54540252685547,198.4210695602865L104.65120077133179,198.4210695602865L104.76200580596924,198.4210695602865L104.87799644470215,198.4210695602865L104.99999523162842,198.4210695602865L105.12820482254028,198.4210695602865L105.26319742202759,198.4210695602865L105.40540218353271,198.4210695602865L105.5556058883667,198.4210695602865L105.71420192718506,198.4210695602865L105.88239431381226,198.4210695602865L105.9999942779541,198.4210695602865L106.06060028076172,198.4210695602865L106.12239837646484,198.4210695602865L106.25,198.4210695602865L106.45159482955933,198.4210695602865L106.52179718017578,198.4210695602865L106.66660070419312,198.4210695602865L106.81819915771484,198.4210695602865L106.89660310745239,198.4210695602865L107.14279413223267,198.4210695602865L107.31699466705322,198.4210695602865L107.40740299224854,198.4210695602865L107.50000476837158,198.4210695602865L107.69239664077759,198.4210695602865L107.89480209350586,198.4210695602865L108.00000429153442,198.4210695602865L108.10819864273071,198.4210695602865L108.3333969116211,198.4210695602865L108.51060152053833,198.4210695602865L108.57139825820923,198.4210695602865L108.69560241699219,198.4210695602865L108.82359743118286,198.4210695602865L108.88880491256714,198.4210695602865L109.09099578857422,198.4210695602865L109.375,198.4210695602865L109.52379703521729,198.4210695602865L109.67739820480347,198.4210695602865L109.75619554519653,198.4210695602865L110.00000238418579,198.4210695602865L110.20400524139404,198.4210695602865L110.25639772415161,198.4210695602865L110.34480333328247,198.4210695602865L110.4166030883789,198.4210695602865L110.52639484405518,198.4210695602865L110.63820123672485,198.4210695602865L110.71419715881348,198.4210695602865L110.81080436706543,198.42107871246017L110.86959838867188,198.42107871246017L111.11119985580444,198.42107871246017L111.36360168457031,198.4210792172401L111.4285945892334,198.4210792172401L111.53839826583862,198.4210792172401L111.62799596786499,198.4210792172401L111.76480054855347,198.4210792172401L111.9047999382019,198.4210792172401L112.00000047683716,198.4210792172401L112.12120056152344,198.4210792172401L112.19520568847656,198.4210792172401L112.24479675292969,198.4210792172401L112.5,198.4210792172401L112.76600360870361,198.46041364511845L112.82060146331787,198.46041364511845L112.90320158004761,198.46041364511845L113.04340362548828,198.46041364511845L113.15779685974121,198.46041364511845L113.33340406417847,198.46041364511845L113.51360082626343,198.46041364511845L113.63639831542969,198.46041364511845L113.79300355911255,198.46041364511845L113.88880014419556,198.46041364511845L113.95339965820312,198.46041364511845L113.99999856948853,198.46041364511845L114.28580284118652,198.46041364511845L114.5833969116211,198.46041365821043L114.63420391082764,198.46041365821043L114.70580101013184,198.46041365821043L114.81479406356812,198.46041365821043L114.89360332489014,198.46041365821043L114.99999761581421,198.46041365821043L115.15159606933594,198.46041365821043L115.3846025466919,198.46041365821043L115.55559635162354,198.46041365821043L115.625,198.46041365821043L115.78940153121948,198.46041365821043L115.90900421142578,198.46041365821043L115.99999666213989,198.46041365821043L116.12900495529175,198.46041365821043L116.21619462966919,198.46041365821043L116.27899408340454,198.46041365821043L116.32659435272217,198.46041365821043L116.6666030883789,198.46041365821043L116.69420003890991,198.46041365821043L117.02120304107666,198.52012900057986L117.07320213317871,198.52012900057986L117.14279651641846,198.52012900057986L117.24139451980591,198.52012900057986L117.39139556884766,198.52012900057986L117.49999523162842,198.52012900057986L117.64700412750244,198.52012900057986L117.77780055999756,198.52012900057986L117.85720586776733,198.52012900057986L117.9487943649292,198.52012900057986L117.99999475479126,198.52012900057986L118.18180084228516,198.52012900057986L118.36739778518677,198.52012900057986L118.4209942817688,198.52012900057986L118.51860284805298,198.52012900057986L118.60460042953491,198.52012900057986L118.75,198.52012900057986L118.91900300979614,198.52012900094576L119.04759407043457,198.52012900094576L119.14900541305542,198.52012900094576L119.23079490661621,198.52012900094576L119.35479640960693,198.52012900094576L119.4443941116333,198.52012900094576L119.51220035552979,198.52012900094576L119.56520080566406,198.52012900094576L120.00000476837158,198.52012900094576L120.40820121765137,198.52012900094576L120.45459747314453,198.52012900094576L120.51279544830322,198.52012900094576L120.58819532394409,198.52012900094576L120.68959474563599,198.52012900094576L120.8333969116211,198.52012900094576L120.93019485473633,198.52012900094576L121.05259895324707,198.52012900094576L121.21219635009766,198.52012900094576L121.27660512924194,198.52012900094576L121.42859697341919,198.52012900094576L121.6215968132019,198.52012900096847L121.73919677734375,198.52012900096847L121.875,198.52012900096847L121.95119857788086,198.52012900096847L122.00000286102295,198.52012900096847L122.22219705581665,198.52012900096847L122.44900465011597,198.52012900096847L122.50000238418579,198.52012900096847L122.58059978485107,198.52012900096847L122.72720336914062,198.52012900096847L122.85720109939575,198.52012900096847L122.9166030883789,198.52012900096847L123.07699918746948,198.52012900096847L123.2558012008667,198.52012907080302L123.3333945274353,198.52012907080302L123.40420484542847,198.52012907080302L123.5293984413147,198.52012907080302L123.68420362472534,198.52012907080302L123.80959987640381,198.52012907080302L123.91300201416016,198.52012907080302L124.00000095367432,198.52012907080302L124.1379976272583,198.52012907080302L124.24240112304688,198.52012907080302L124.32440519332886,198.52012907080302L124.39019680023193,198.52012907080302L124.44440126419067,198.52012907080302L124.48979616165161,198.52012907080302L125,198.52012907080302L125.53199529647827,198.52012916357288L125.58139562606812,198.52012916357288L125.6410002708435,198.52012916357288L125.71419477462769,198.52012916357288L125.80640316009521,198.52012916357288L125.92600584030151,198.52012916357288L125.99999904632568,198.52012916357288L126.08699798583984,198.52012916357288L126.19040012359619,198.52012916357288L126.31579637527466,198.52012916357288L126.4706015586853,198.52012916357288L126.53059959411621,198.52012916357288L126.6666054725647,198.52012916357288L126.82919502258301,198.52012916357288L126.92300081253052,198.52012916357288L127.02699899673462,198.52012916357288L127.0833969116211,198.52012916357288L127.27279663085938,198.52012916357288L127.49999761581421,198.52012916357288L127.58619785308838,198.52012916357288L127.6595950126648,198.52012916357288L127.77780294418335,198.52012916357288L127.90700197219849,198.52012916357288L127.99999713897705,198.52012916357288L128.125,198.52012916357566L128.20520401000977,198.52012916357566L128.26080322265625,198.52012916357566L128.5714030265808,198.52012916357566L128.88879776000977,198.52012916357566L128.94740104675293,198.52012916357566L129.0321946144104,198.52012916357566L129.1666030883789,198.52012916357566L129.26820516586304,198.52012916357566L129.4118046760559,198.52012916357566L129.54540252685547,198.52012916357566L129.62960004806519,198.52012916357566L129.72979545593262,198.52012916357566L129.78719472885132,198.52012916357566L129.99999523162842,198.52012916357566L130.2325963973999,198.9736561917808L130.3030014038086,198.9736561917808L130.43479919433594,198.9736561917808L130.5556058883667,198.9736561917808L130.61219453811646,198.9736561917808L130.7692050933838,198.9736561917808L130.95240592956543,198.9736561917808L131.03439807891846,198.9736561917808L131.11120462417603,198.97365619178098L131.25,198.97365619178098L131.42859935760498,198.97365619178098L131.5790057182312,198.97365619178098L131.7073941230774,198.97365619178098L131.81819915771484,198.97365619178098L131.91479444503784,198.97365619178098L132.00000524520874,198.97365619178098L132.14279413223267,198.97365619178098L132.25799798965454,198.97365619178098L132.35299587249756,198.97365619178098L132.43240118026733,198.97365619178098L132.50000476837158,198.97365619178098L132.55820274353027,198.97365619178098L132.60860443115234,198.97365619178098L132.65299797058105,198.97365619178098L133.3333969116211,198.97365619178098L134.0000033378601,198.9772252245121L134.0425968170166,198.9772252245121L134.09099578857422,198.9772252245121L134.14640426635742,198.9772252245121L134.21059846878052,198.9772252245121L134.28579568862915,198.9772252245121L134.375,198.9772252245121L134.48280096054077,198.9772252245121L134.6153974533081,198.9772252245121L134.69380140304565,198.9772252245121L134.78260040283203,198.9772252245121L134.8837971687317,198.9772252245121L135.0000023841858,198.9772252245121L135.13519763946533,198.9772252245121L135.29419898986816,198.9772252245121L135.4166030883789,198.9772252245121L135.48380136489868,198.9772252245121L135.55560111999512,198.9772252245121L135.71419715881348,198.9772252245121L135.89739799499512,198.9772252245121L136.00000143051147,198.9772252245121L136.11119985580444,198.9772252245121L136.17019653320312,198.9772252245121L136.3636016845703,198.9772252245121L136.5854024887085,198.9772252245121L136.66659593582153,198.9772252245121L136.73460483551025,198.9772252245121L136.8422031402588,198.9772252245121L136.95659637451172,198.9772252245121L137.03700304031372,198.9772252245121L137.14280128479004,198.9772252245121L137.20940351486206,198.9772252245121L137.5,198.9772252245121L137.77780532836914,198.97722522867082L137.83780336380005,198.97722522867082L137.93100118637085,198.97722522867082L137.99999952316284,198.97722522867082L138.0952000617981,198.97722522867082L138.23519945144653,198.97722522867082L138.29779624938965,198.97722522867082L138.46160173416138,198.97722522867082L138.6363983154297,198.97722522867082L138.70960474014282,198.97722522867082L138.77559900283813,198.97722522867082L138.88880014419556,198.97722522867082L139.02440071105957,198.97722522867082L139.13040161132812,198.97722522867082L139.28580284118652,198.97722522867082L139.3939971923828,198.97722522867082L139.47360515594482,198.97722522867082L139.53479528427124,198.97722522867082L139.5833969116211,198.97722522867082L139.9999976158142,198.97722522867082L140.4255986213684,198.97731788860108L140.47620296478271,198.97731788860108L140.54059982299805,198.97731788860108L140.625,198.97731788860108L140.74079990386963,198.97731788860108L140.81640243530273,198.97731788860108L140.90900421142578,198.97731788860108L141.0256028175354,198.97731788860108L141.17640256881714,198.97731788860108L141.3043975830078,198.97731788860108L141.37940406799316,198.97731788860108L141.46339893341064,198.97731788860108L141.6666030883789,198.97731788860108L141.8604016304016,198.97731788860108L141.935396194458,198.97731788860108L141.99999570846558,198.97731788860108L142.10519790649414,198.97731788860108L142.22220182418823,198.97731788860108L142.3076033592224,198.97731788860108L142.42420196533203,198.97731788860108L142.55319833755493,198.97731788860108L142.85720586776733,198.97731788860108L143.18180084228516,198.97731788860108L143.24320554733276,198.97731788860108L143.33339929580688,198.97731788860108L143.47820281982422,198.97731788860108L143.5897946357727,198.97731788860108L143.75,198.97731788860108L143.90239715576172,198.97731788860108L144.0000057220459,198.97731788860108L144.11760568618774,198.97731788860108L144.18599605560303,198.97731788860108L144.4443941116333,198.97731788860108L144.68079805374146,198.97731788860108L144.7368025779724,198.97731788860108L144.82760429382324,198.97731788860108L144.89799737930298,198.97731788860108L145.00000476837158,198.97731788860108L145.16119956970215,198.97731788860108L145.23799419403076,198.97731788860108L145.45459747314453,198.97731788860108L145.6521987915039,198.97731788860108L145.71419954299927,198.97731788860108L145.8333969116211,198.97731788860108L145.94600200653076,198.97731788860108L146.00000381469727,198.97731788860108L146.15379571914673,198.97731788860108L146.3413953781128,198.97731788860108L146.4285969734192,198.97731788860108L146.5116024017334,198.97731788860108L146.66659832000732,198.97731788860108L146.80860042572021,198.97731788860108L146.875,198.97731788860108L147.0587968826294,198.97731788860108L147.22219705581665,198.97731788860108L147.36839532852173,198.97731788860108L147.5000023841858,198.97731788860108L147.61899709701538,199.01653335231816L147.72720336914062,199.01653335231816L147.8260040283203,199.01653335231816L147.9166030883789,199.01653335231816L148.00000190734863,199.01653335231816L148.14820289611816,199.01653335231816L148.3870029449463,199.01653335231816L148.48480224609375,199.01653335231816L148.57139587402344,199.01653335231816L148.717999458313,199.01653335231816L148.78040552139282,199.01653335231816L148.83719682693481,199.01653335231816L148.93620014190674,199.01653335231816L148.97960424423218,199.01653335231816L150,199.01653335231816L151.06379985809326,199.07818188780658L151.11119747161865,199.07818188780658L151.42860412597656,199.07818188780658L151.6129970550537,199.07818188780658L151.72419548034668,199.07818188780658L151.85179710388184,199.07818188780658L151.99999809265137,199.07818188780658L152.0833969116211,199.07818188780658L152.1739959716797,199.07818188780658L152.27279663085938,199.07818188780658L152.38100290298462,199.07818188780658L152.63160467147827,199.07818188780658L152.77780294418335,199.07818188780658L152.9412031173706,199.07818188780658L153.125,199.07818188780658L153.33340167999268,199.07818188780658L153.4883975982666,199.14016099915182L153.5714030265808,199.14016099915182L153.6586046218872,199.14016099915182L153.84620428085327,199.14016099915182L153.99999618530273,199.14016099915182L154.05399799346924,199.14016099915182L154.1666030883789,199.14016099915182L154.3478012084961,199.14016099915182L154.54540252685547,199.14016099915182L154.76200580596924,199.14016099915182L154.83880043029785,199.14016099915182L154.99999523162842,199.14016099915182L155.31920194625854,199.14016099915182L155.5556058883667,199.14016099915182L155.88239431381226,199.14016099915182L155.9999942779541,199.14016099915182L156.09760284423828,199.14016099915182L156.25,199.14016099915182L156.52179718017578,199.14016099915182L156.66660070419312,199.14016099915182L156.75679445266724,199.14016099915182L157.14279413223267,199.14016099915182L157.57579803466797,199.14016099915182L157.6923966407776,199.14016099915182L157.89480209350586,199.14016099915182L158.00000429153442,199.14016099915182L158.3333969116211,199.14016099915182L158.62059593200684,199.14016099915182L158.82359743118286,199.14016100753796L159.09099578857422,199.14016100753796L159.25920009613037,199.14016100753796L159.45940017700195,199.14016100753796L160.0000023841858,199.14016100753796L160.4166030883789,199.14016100753798L160.71419715881348,199.14016100753798L160.86959838867188,199.14016100753798L161.11119985580444,199.14016100753798L161.29039525985718,199.14016100753798L161.53839826583862,199.14016100753798L161.76480054855347,199.14016100753798L161.9047999382019,199.14016100753798L162.00000047683716,199.14016100753798L162.06899881362915,199.14016100753798L162.5,199.14016100753798L162.79059648513794,199.1404553042418L162.85719871520996,199.1404553042418L162.96299695968628,199.1404553042418L163.6363983154297,199.1404553042418L163.88880014419556,199.1404553042418L163.99999856948853,199.1404553042418L164.28580284118652,199.1404553042418L164.51619863510132,199.1404553042418L164.70580101013184,199.1404553042418L164.9999976158142,199.1404553042418L165.21739959716797,199.1404553042418L165.51719903945923,199.1404553042418L165.9999966621399,199.1404553042418L166.6666030883789,199.1404553042418L167.99999475479126,199.14045990665085L168.18180084228516,199.14045990665085L168.4209942817688,199.14045990665085L168.75,199.14045990665085L168.96560192108154,199.14045990665085L169.2307949066162,199.14045990665085L170.00000476837158,199.14045990665085L170.37039995193481,199.14045990665085L170.5881953239441,199.14045990665085L171.4285969734192,199.14045990665085L172.00000286102295,199.14045990665645L172.22219705581665,199.14045990665645L172.72720336914062,199.14045990665645L173.170804977417,199.14045990665645L173.3333945274353,199.14045990665645L173.91300201416016,199.14064056396202L174.00000095367432,199.14064056396202L174.3589997291565,199.14064056396202L175,199.14064056396202L175.8620023727417,199.15806470508335L175.99999904632568,199.15806470508335L176.4706015586853,199.15806470508335L176.59579515457153,199.15806470508335L176.92300081253052,199.15806470508335L177.77780294418335,199.15806470508335L177.99999713897705,199.15806470508335L178.5714030265808,199.15806470508335L179.99999523162842,199.15806470508335L180.5556058883667,199.1580826942113L181.81819915771484,199.1580826942113L182.00000524520874,199.1580826942113L182.14279413223267,199.1580826942113L183.3333969116211,199.1580826942113L184.0000033378601,199.1580826942113L184.21059846878052,199.1580826942113L184.6153974533081,199.1580826942113L185.71419715881348,199.1580826942113L186.00000143051147,199.1580826942113L186.04660034179688,199.1580826942113L186.66659593582153,199.1580826942113L186.95659637451172,199.1580826942113L187.5,199.1580826942113L187.99999952316284,199.1580826942113L188.23519945144653,199.1580826942113L188.46160173416138,199.1580826942113L188.88880014419556,199.1580826942113L189.47360515594482,199.1580826942113L189.9999976158142,199.1580826942113L190.47620296478271,199.1580826942113L190.625,199.1580826942113L190.90900421142578,199.1580826942113L191.3043975830078,199.1580826942113L191.42860174179077,199.1580826942113L191.6666030883789,199.1580826942113L191.99999570846558,199.1580826942113L192.3076033592224,199.1580826942113L192.68300533294678,199.1580826942113L192.85720586776733,199.1580826942113L193.33339929580688,199.1580826942113L193.54840517044067,199.1580826942113L193.6169981956482,199.1580826942113L193.75,199.1580826942113L193.93939971923828,199.1580826942113L194.0000057220459,199.1580826942113L194.11760568618774,199.1580826942113L194.28579807281494,199.1580826942113L194.4443941116333,199.1580826942113L194.7368025779724,199.1580826942113L194.87179517745972,199.1580826942113L195.00000476837158,199.1580826942113L195.12200355529785,199.1580826942113L195.23799419403076,199.1580826942113L195.3487992286682,199.1580826942113L195.45459747314453,199.1580826942113L195.5556035041809,199.1580826942113L195.6521987915039,199.1580826942113L195.74459791183472,199.1580826942113L195.8333969116211,199.1580826942113L195.91840505599976,199.1580826942113L196.00000381469727,199.1580826942113L196.15379571914673,199.1580826942113L196.2962031364441,199.1580826942113L196.4285969734192,199.1580826942113L196.55179977416992,199.1580826942113L196.66659832000732,199.1580826942113L196.77419662475586,199.1580826942113L196.875,199.1580826942113L196.9696044921875,199.1580826942113L197.0587968826294,199.1580826942113L197.14280366897583,199.1580826942113L197.22219705581665,199.1580826942113L197.297203540802,199.1580826942113L197.36839532852173,199.1580826942113L197.43579626083374,199.1580826942113L197.5000023841858,199.1580826942113L197.56100177764893,199.1580826942113L197.61899709701538,199.1580826942113L197.67440557479858,199.1580826942113L197.72720336914062,199.1580826942113L197.77779579162598,199.1580826942113L197.8260040283203,199.1580826942113L197.87240028381348,199.1580826942113L197.9166030883789,199.1580826942113L197.9591965675354,199.1580826942113L198.00000190734863,199.1580826942113L200,199.1580826942113" style="fill: none; stroke: #4c78a8; stroke-width: 2;"></path></g><g class="mark-group role-axis"><g transform="translate(0.5,200.5)"><path class="background" d="M0,0h0v0h0Z" style="pointer-events: none; fill: none;"></path><g><g class="mark-rule role-axis-tick" style="pointer-events: none;"><line transform="translate(0,0)" x2="0" y2="5" style="fill: none; stroke: #888; stroke-width: 1; opacity: 1;"></line><line transform="translate(40,0)" x2="0" y2="5" style="fill: none; stroke: #888; stroke-width: 1; opacity: 1;"></line><line transform="translate(80,0)" x2="0" y2="5" style="fill: none; stroke: #888; stroke-width: 1; opacity: 1;"></line><line transform="translate(120,0)" x2="0" y2="5" style="fill: none; stroke: #888; stroke-width: 1; opacity: 1;"></line><line transform="translate(160,0)" x2="0" y2="5" style="fill: none; stroke: #888; stroke-width: 1; opacity: 1;"></line><line transform="translate(200,0)" x2="0" y2="5" style="fill: none; stroke: #888; stroke-width: 1; opacity: 1;"></line></g><g class="mark-text role-axis-label" style="pointer-events: none;"><text text-anchor="start" transform="translate(0,15)" style="font-family: sans-serif; font-size: 10px; fill: #000; opacity: 1;">0.0</text><text text-anchor="middle" transform="translate(40,15)" style="font-family: sans-serif; font-size: 10px; fill: #000; opacity: 1;">0.2</text><text text-anchor="middle" transform="translate(80,15)" style="font-family: sans-serif; font-size: 10px; fill: #000; opacity: 1;">0.4</text><text text-anchor="middle" transform="translate(120,15)" style="font-family: sans-serif; font-size: 10px; fill: #000; opacity: 1;">0.6</text><text text-anchor="middle" transform="translate(160,15)" style="font-family: sans-serif; font-size: 10px; fill: #000; opacity: 1;">0.8</text><text text-anchor="end" transform="translate(200,15)" style="font-family: sans-serif; font-size: 10px; fill: #000; opacity: 1;">1.0</text></g><g class="mark-rule role-axis-domain" style="pointer-events: none;"><line transform="translate(0,0)" x2="200" y2="0" style="fill: none; stroke: #888; stroke-width: 1; opacity: 1;"></line></g><g class="mark-text role-axis-title" style="pointer-events: none;"><text text-anchor="middle" transform="translate(100,30)" style="font-family: sans-serif; font-size: 11px; font-weight: bold; fill: #000; opacity: 1;">minimum VAF</text></g></g></g></g><g class="mark-group role-axis"><g transform="translate(0.5,0.5)"><path class="background" d="M0,0h0v0h0Z" style="pointer-events: none; fill: none;"></path><g><g class="mark-rule role-axis-tick" style="pointer-events: none;"><line transform="translate(0,200)" x2="-5" y2="0" style="fill: none; stroke: #888; stroke-width: 1; opacity: 1;"></line><line transform="translate(0,164)" x2="-5" y2="0" style="fill: none; stroke: #888; stroke-width: 1; opacity: 1;"></line><line transform="translate(0,127)" x2="-5" y2="0" style="fill: none; stroke: #888; stroke-width: 1; opacity: 1;"></line><line transform="translate(0,91)" x2="-5" y2="0" style="fill: none; stroke: #888; stroke-width: 1; opacity: 1;"></line><line transform="translate(0,55)" x2="-5" y2="0" style="fill: none; stroke: #888; stroke-width: 1; opacity: 1;"></line><line transform="translate(0,18)" x2="-5" y2="0" style="fill: none; stroke: #888; stroke-width: 1; opacity: 1;"></line></g><g class="mark-text role-axis-label" style="pointer-events: none;"><text text-anchor="end" transform="translate(-7,203)" style="font-family: sans-serif; font-size: 10px; fill: #000; opacity: 1;">0</text><text text-anchor="end" transform="translate(-7,166.63636363636363)" style="font-family: sans-serif; font-size: 10px; fill: #000; opacity: 1;">20</text><text text-anchor="end" transform="translate(-7,130.27272727272725)" style="font-family: sans-serif; font-size: 10px; fill: #000; opacity: 1;">40</text><text text-anchor="end" transform="translate(-7,93.90909090909092)" style="font-family: sans-serif; font-size: 10px; fill: #000; opacity: 1;">60</text><text text-anchor="end" transform="translate(-7,57.54545454545453)" style="font-family: sans-serif; font-size: 10px; fill: #000; opacity: 1;">80</text><text text-anchor="end" transform="translate(-7,21.181818181818187)" style="font-family: sans-serif; font-size: 10px; fill: #000; opacity: 1;">100</text></g><g class="mark-rule role-axis-domain" style="pointer-events: none;"><line transform="translate(0,200)" x2="0" y2="-200" style="fill: none; stroke: #888; stroke-width: 1; opacity: 1;"></line></g><g class="mark-text role-axis-title" style="pointer-events: none;"><text text-anchor="middle" transform="translate(-29,100) rotate(-90) translate(0,-2)" style="font-family: sans-serif; font-size: 11px; font-weight: bold; fill: #000; opacity: 1;">mutations/Mb</text></g></g></g></g></g></g></g></g></svg>